# xmcd
#
# Track frame offsets:
#	150
#	19375
#	46130
#	64482
#	85815
#	105354
#	128042
#	147357
#	167865
#	186417
#
# Disc length: 2785 seconds
#
# Revision: 0
# Processed by: cddbd v1.4PL0 Copyright (c) Steve Scherf et al.
# Submitted via: OrangeCD 4.1
#
DISCID=8b0adf0a
DTITLE=Bobby Rush - One Monkey Don't Stop No Show
DYEAR=1900
DGENRE=
TTITLE0=One Monkey Don't Stop No Show
TTITLE1=Hen Pecked
TTITLE2=Cut Me In
TTITLE3=I Need Someone
TTITLE4=Dangerous
TTITLE5=I Wanna Get Close to Ya
TTITLE6=People Sure Act Funny
TTITLE7=Jezebel
TTITLE8=Blues With A Feeling
TTITLE9=She's So Fine
EXTD=
EXTT0=
EXTT1=
EXTT2=
EXTT3=
EXTT4=
EXTT5=
EXTT6=
EXTT7=
EXTT8=
EXTT9=
PLAYORDER=
